<mxfile host="app.diagrams.net" agent="Mozilla/5.0 (Windows NT 10.0; Win64; x64) AppleWebKit/537.36 (KHTML, like Gecko) Chrome/128.0.0.0 Safari/537.36" version="24.7.7">
  <diagram name="Page-1" id="zq4o_GcmWN_uh37mNIe-">
    <mxGraphModel dx="2062" dy="1793" grid="1" gridSize="10" guides="1" tooltips="1" connect="1" arrows="1" fold="1" page="1" pageScale="1" pageWidth="827" pageHeight="1169" math="0" shadow="0">
      <root>
        <mxCell id="0" />
        <mxCell id="1" parent="0" />
        <mxCell id="0jWEhjdDe2riqvf0Gzja-61" value="Class" style="shape=umlFrame;whiteSpace=wrap;html=1;rounded=0;shadow=0;comic=0;labelBackgroundColor=none;strokeWidth=1;fontFamily=Verdana;fontSize=10;align=center;" parent="1" vertex="1">
          <mxGeometry x="-530" y="-297" width="3250" height="1060" as="geometry" />
        </mxCell>
        <mxCell id="0jWEhjdDe2riqvf0Gzja-62" value="Person" style="swimlane;fontStyle=1;align=center;verticalAlign=top;childLayout=stackLayout;horizontal=1;startSize=26;horizontalStack=0;resizeParent=1;resizeParentMax=0;resizeLast=0;collapsible=1;marginBottom=0;whiteSpace=wrap;html=1;" parent="1" vertex="1">
          <mxGeometry x="240" y="40" width="160" height="140" as="geometry" />
        </mxCell>
        <mxCell id="0jWEhjdDe2riqvf0Gzja-63" value="- name: String&lt;div&gt;- contact: long&lt;/div&gt;" style="text;strokeColor=none;fillColor=none;align=left;verticalAlign=top;spacingLeft=4;spacingRight=4;overflow=hidden;rotatable=0;points=[[0,0.5],[1,0.5]];portConstraint=eastwest;whiteSpace=wrap;html=1;" parent="0jWEhjdDe2riqvf0Gzja-62" vertex="1">
          <mxGeometry y="26" width="160" height="34" as="geometry" />
        </mxCell>
        <mxCell id="0jWEhjdDe2riqvf0Gzja-64" value="" style="line;strokeWidth=1;fillColor=none;align=left;verticalAlign=middle;spacingTop=-1;spacingLeft=3;spacingRight=3;rotatable=0;labelPosition=right;points=[];portConstraint=eastwest;strokeColor=inherit;" parent="0jWEhjdDe2riqvf0Gzja-62" vertex="1">
          <mxGeometry y="60" width="160" height="8" as="geometry" />
        </mxCell>
        <mxCell id="0jWEhjdDe2riqvf0Gzja-65" value="+ getName(): String&lt;div&gt;+ setName(String): void&lt;/div&gt;&lt;div&gt;+ getContact(): long&lt;/div&gt;&lt;div&gt;+ setContact(long): void&lt;/div&gt;" style="text;strokeColor=none;fillColor=none;align=left;verticalAlign=top;spacingLeft=4;spacingRight=4;overflow=hidden;rotatable=0;points=[[0,0.5],[1,0.5]];portConstraint=eastwest;whiteSpace=wrap;html=1;" parent="0jWEhjdDe2riqvf0Gzja-62" vertex="1">
          <mxGeometry y="68" width="160" height="72" as="geometry" />
        </mxCell>
        <mxCell id="0jWEhjdDe2riqvf0Gzja-66" value="Faculty" style="swimlane;fontStyle=1;align=center;verticalAlign=top;childLayout=stackLayout;horizontal=1;startSize=26;horizontalStack=0;resizeParent=1;resizeParentMax=0;resizeLast=0;collapsible=1;marginBottom=0;whiteSpace=wrap;html=1;" parent="1" vertex="1">
          <mxGeometry x="40" y="240" width="200" height="180" as="geometry" />
        </mxCell>
        <mxCell id="0jWEhjdDe2riqvf0Gzja-67" value="- department: String&lt;div&gt;- employeeId: int&lt;/div&gt;" style="text;strokeColor=none;fillColor=none;align=left;verticalAlign=top;spacingLeft=4;spacingRight=4;overflow=hidden;rotatable=0;points=[[0,0.5],[1,0.5]];portConstraint=eastwest;whiteSpace=wrap;html=1;" parent="0jWEhjdDe2riqvf0Gzja-66" vertex="1">
          <mxGeometry y="26" width="200" height="34" as="geometry" />
        </mxCell>
        <mxCell id="0jWEhjdDe2riqvf0Gzja-68" value="" style="line;strokeWidth=1;fillColor=none;align=left;verticalAlign=middle;spacingTop=-1;spacingLeft=3;spacingRight=3;rotatable=0;labelPosition=right;points=[];portConstraint=eastwest;strokeColor=inherit;" parent="0jWEhjdDe2riqvf0Gzja-66" vertex="1">
          <mxGeometry y="60" width="200" height="8" as="geometry" />
        </mxCell>
        <mxCell id="0jWEhjdDe2riqvf0Gzja-69" value="+ getDepartment(): String&lt;div&gt;+ setDepartment(String): void&lt;/div&gt;&lt;div&gt;+ getEmployeeId(): int&lt;/div&gt;&lt;div&gt;+ setEmployeeId(int): void&lt;/div&gt;&lt;div&gt;+ equals(Object): boolean&lt;/div&gt;&lt;div&gt;+ toString(): String&lt;/div&gt;&lt;div&gt;+ compareTo(Object): int&lt;/div&gt;" style="text;strokeColor=none;fillColor=none;align=left;verticalAlign=top;spacingLeft=4;spacingRight=4;overflow=hidden;rotatable=0;points=[[0,0.5],[1,0.5]];portConstraint=eastwest;whiteSpace=wrap;html=1;" parent="0jWEhjdDe2riqvf0Gzja-66" vertex="1">
          <mxGeometry y="68" width="200" height="112" as="geometry" />
        </mxCell>
        <mxCell id="0jWEhjdDe2riqvf0Gzja-70" value="Student" style="swimlane;fontStyle=1;align=center;verticalAlign=top;childLayout=stackLayout;horizontal=1;startSize=26;horizontalStack=0;resizeParent=1;resizeParentMax=0;resizeLast=0;collapsible=1;marginBottom=0;whiteSpace=wrap;html=1;" parent="1" vertex="1">
          <mxGeometry x="400" y="240" width="200" height="180" as="geometry" />
        </mxCell>
        <mxCell id="0jWEhjdDe2riqvf0Gzja-71" value="- year: int&lt;div&gt;- studentId: int&lt;/div&gt;" style="text;strokeColor=none;fillColor=none;align=left;verticalAlign=top;spacingLeft=4;spacingRight=4;overflow=hidden;rotatable=0;points=[[0,0.5],[1,0.5]];portConstraint=eastwest;whiteSpace=wrap;html=1;" parent="0jWEhjdDe2riqvf0Gzja-70" vertex="1">
          <mxGeometry y="26" width="200" height="34" as="geometry" />
        </mxCell>
        <mxCell id="0jWEhjdDe2riqvf0Gzja-72" value="" style="line;strokeWidth=1;fillColor=none;align=left;verticalAlign=middle;spacingTop=-1;spacingLeft=3;spacingRight=3;rotatable=0;labelPosition=right;points=[];portConstraint=eastwest;strokeColor=inherit;" parent="0jWEhjdDe2riqvf0Gzja-70" vertex="1">
          <mxGeometry y="60" width="200" height="8" as="geometry" />
        </mxCell>
        <mxCell id="0jWEhjdDe2riqvf0Gzja-73" value="+ getYear(): int&lt;div&gt;+ setYear(int): void&lt;/div&gt;&lt;div&gt;+ getStudentId(): int&lt;/div&gt;&lt;div&gt;+ setStudentId(int): void&lt;/div&gt;&lt;div&gt;+ equals(Object): boolean&lt;/div&gt;&lt;div&gt;+ toString(): String&lt;/div&gt;&lt;div&gt;+ compareTo(Object): int&lt;/div&gt;" style="text;strokeColor=none;fillColor=none;align=left;verticalAlign=top;spacingLeft=4;spacingRight=4;overflow=hidden;rotatable=0;points=[[0,0.5],[1,0.5]];portConstraint=eastwest;whiteSpace=wrap;html=1;" parent="0jWEhjdDe2riqvf0Gzja-70" vertex="1">
          <mxGeometry y="68" width="200" height="112" as="geometry" />
        </mxCell>
        <mxCell id="0jWEhjdDe2riqvf0Gzja-74" value="" style="endArrow=block;html=1;rounded=0;align=center;verticalAlign=bottom;endFill=0;labelBackgroundColor=none;endSize=8;exitX=0.5;exitY=0;exitDx=0;exitDy=0;entryX=0;entryY=0.5;entryDx=0;entryDy=0;" parent="1" source="0jWEhjdDe2riqvf0Gzja-66" target="0jWEhjdDe2riqvf0Gzja-62" edge="1">
          <mxGeometry relative="1" as="geometry">
            <mxPoint x="220" y="330" as="sourcePoint" />
            <mxPoint x="360" y="130" as="targetPoint" />
          </mxGeometry>
        </mxCell>
        <mxCell id="0jWEhjdDe2riqvf0Gzja-75" value="" style="endArrow=block;html=1;rounded=0;align=center;verticalAlign=bottom;endFill=0;labelBackgroundColor=none;endSize=8;exitX=0.5;exitY=0;exitDx=0;exitDy=0;entryX=0.994;entryY=1.176;entryDx=0;entryDy=0;entryPerimeter=0;" parent="1" source="0jWEhjdDe2riqvf0Gzja-70" target="0jWEhjdDe2riqvf0Gzja-63" edge="1">
          <mxGeometry relative="1" as="geometry">
            <mxPoint x="380" y="400" as="sourcePoint" />
            <mxPoint x="430" y="220" as="targetPoint" />
          </mxGeometry>
        </mxCell>
        <mxCell id="0jWEhjdDe2riqvf0Gzja-76" value="Admin" style="swimlane;fontStyle=1;align=center;verticalAlign=top;childLayout=stackLayout;horizontal=1;startSize=26;horizontalStack=0;resizeParent=1;resizeParentMax=0;resizeLast=0;collapsible=1;marginBottom=0;whiteSpace=wrap;html=1;" parent="1" vertex="1">
          <mxGeometry x="40" y="480" width="200" height="190" as="geometry" />
        </mxCell>
        <mxCell id="0jWEhjdDe2riqvf0Gzja-77" value="- username: String&lt;div&gt;- password: String&lt;/div&gt;&lt;div&gt;- id: int&lt;/div&gt;" style="text;strokeColor=none;fillColor=none;align=left;verticalAlign=top;spacingLeft=4;spacingRight=4;overflow=hidden;rotatable=0;points=[[0,0.5],[1,0.5]];portConstraint=eastwest;whiteSpace=wrap;html=1;" parent="0jWEhjdDe2riqvf0Gzja-76" vertex="1">
          <mxGeometry y="26" width="200" height="54" as="geometry" />
        </mxCell>
        <mxCell id="0jWEhjdDe2riqvf0Gzja-78" value="" style="line;strokeWidth=1;fillColor=none;align=left;verticalAlign=middle;spacingTop=-1;spacingLeft=3;spacingRight=3;rotatable=0;labelPosition=right;points=[];portConstraint=eastwest;strokeColor=inherit;" parent="0jWEhjdDe2riqvf0Gzja-76" vertex="1">
          <mxGeometry y="80" width="200" height="8" as="geometry" />
        </mxCell>
        <mxCell id="0jWEhjdDe2riqvf0Gzja-79" value="+ getUsername(): String&lt;div&gt;+ setUsername(String): void&lt;/div&gt;&lt;div&gt;+ getPassword(): String&lt;/div&gt;&lt;div&gt;+ setPassword(String): String&lt;/div&gt;&lt;div&gt;+ getId(): int&lt;/div&gt;&lt;div&gt;+ setId(int): void&lt;/div&gt;" style="text;strokeColor=none;fillColor=none;align=left;verticalAlign=top;spacingLeft=4;spacingRight=4;overflow=hidden;rotatable=0;points=[[0,0.5],[1,0.5]];portConstraint=eastwest;whiteSpace=wrap;html=1;" parent="0jWEhjdDe2riqvf0Gzja-76" vertex="1">
          <mxGeometry y="88" width="200" height="102" as="geometry" />
        </mxCell>
        <mxCell id="0jWEhjdDe2riqvf0Gzja-80" value="&lt;p style=&quot;margin:0px;margin-top:4px;text-align:center;&quot;&gt;&lt;b&gt;Book&lt;/b&gt;&lt;/p&gt;&lt;hr size=&quot;1&quot; style=&quot;border-style:solid;&quot;&gt;&lt;p style=&quot;margin:0px;margin-left:4px;&quot;&gt;+ field: Type&lt;/p&gt;&lt;hr size=&quot;1&quot; style=&quot;border-style:solid;&quot;&gt;&lt;p style=&quot;margin:0px;margin-left:4px;&quot;&gt;+ method(): Type&lt;/p&gt;" style="verticalAlign=top;align=left;overflow=fill;html=1;whiteSpace=wrap;" parent="1" vertex="1">
          <mxGeometry x="400" y="480" width="200" height="200" as="geometry" />
        </mxCell>
        <mxCell id="0jWEhjdDe2riqvf0Gzja-81" value="«interface»&lt;br&gt;&lt;b&gt;AdminControllerInterface&lt;/b&gt;" style="html=1;whiteSpace=wrap;" parent="1" vertex="1">
          <mxGeometry x="974" y="90" width="160" height="50" as="geometry" />
        </mxCell>
        <mxCell id="0jWEhjdDe2riqvf0Gzja-86" value="" style="edgeStyle=orthogonalEdgeStyle;rounded=0;orthogonalLoop=1;jettySize=auto;html=1;dashed=1;endArrow=block;endFill=0;" parent="1" source="0jWEhjdDe2riqvf0Gzja-82" target="0jWEhjdDe2riqvf0Gzja-81" edge="1">
          <mxGeometry relative="1" as="geometry" />
        </mxCell>
        <mxCell id="0jWEhjdDe2riqvf0Gzja-82" value="AdminController" style="swimlane;fontStyle=1;align=center;verticalAlign=top;childLayout=stackLayout;horizontal=1;startSize=26;horizontalStack=0;resizeParent=1;resizeParentMax=0;resizeLast=0;collapsible=1;marginBottom=0;whiteSpace=wrap;html=1;" parent="1" vertex="1">
          <mxGeometry x="929" y="190" width="250" height="150" as="geometry" />
        </mxCell>
        <mxCell id="0jWEhjdDe2riqvf0Gzja-83" value="- adminDAOInterface: AdminDAOInterface" style="text;strokeColor=none;fillColor=none;align=left;verticalAlign=top;spacingLeft=4;spacingRight=4;overflow=hidden;rotatable=0;points=[[0,0.5],[1,0.5]];portConstraint=eastwest;whiteSpace=wrap;html=1;" parent="0jWEhjdDe2riqvf0Gzja-82" vertex="1">
          <mxGeometry y="26" width="250" height="26" as="geometry" />
        </mxCell>
        <mxCell id="0jWEhjdDe2riqvf0Gzja-84" value="" style="line;strokeWidth=1;fillColor=none;align=left;verticalAlign=middle;spacingTop=-1;spacingLeft=3;spacingRight=3;rotatable=0;labelPosition=right;points=[];portConstraint=eastwest;strokeColor=inherit;" parent="0jWEhjdDe2riqvf0Gzja-82" vertex="1">
          <mxGeometry y="52" width="250" height="8" as="geometry" />
        </mxCell>
        <mxCell id="0jWEhjdDe2riqvf0Gzja-85" value="+updatePassword(String):String&lt;div&gt;+updateUsername(String):String&lt;/div&gt;&lt;div&gt;+isRightAuthentication(Admin):boolean&lt;/div&gt;&lt;div&gt;+checkUsername(String):boolean&lt;/div&gt;&lt;div&gt;+checkPassword(String):boolean&lt;/div&gt;" style="text;strokeColor=none;fillColor=none;align=left;verticalAlign=top;spacingLeft=4;spacingRight=4;overflow=hidden;rotatable=0;points=[[0,0.5],[1,0.5]];portConstraint=eastwest;whiteSpace=wrap;html=1;" parent="0jWEhjdDe2riqvf0Gzja-82" vertex="1">
          <mxGeometry y="60" width="250" height="90" as="geometry" />
        </mxCell>
        <mxCell id="0jWEhjdDe2riqvf0Gzja-90" value="«interface»&lt;br&gt;&lt;b&gt;AdminDAOInterface&lt;/b&gt;" style="html=1;whiteSpace=wrap;" parent="1" vertex="1">
          <mxGeometry x="1274" y="85" width="160" height="50" as="geometry" />
        </mxCell>
        <mxCell id="0jWEhjdDe2riqvf0Gzja-95" value="" style="edgeStyle=orthogonalEdgeStyle;rounded=0;orthogonalLoop=1;jettySize=auto;html=1;endArrow=block;endFill=0;dashed=1;" parent="1" source="0jWEhjdDe2riqvf0Gzja-91" target="0jWEhjdDe2riqvf0Gzja-90" edge="1">
          <mxGeometry relative="1" as="geometry" />
        </mxCell>
        <mxCell id="0jWEhjdDe2riqvf0Gzja-91" value="AdminDAO" style="swimlane;fontStyle=1;align=center;verticalAlign=top;childLayout=stackLayout;horizontal=1;startSize=26;horizontalStack=0;resizeParent=1;resizeParentMax=0;resizeLast=0;collapsible=1;marginBottom=0;whiteSpace=wrap;html=1;" parent="1" vertex="1">
          <mxGeometry x="1229" y="216" width="250" height="124" as="geometry" />
        </mxCell>
        <mxCell id="0jWEhjdDe2riqvf0Gzja-93" value="" style="line;strokeWidth=1;fillColor=none;align=left;verticalAlign=middle;spacingTop=-1;spacingLeft=3;spacingRight=3;rotatable=0;labelPosition=right;points=[];portConstraint=eastwest;strokeColor=inherit;" parent="0jWEhjdDe2riqvf0Gzja-91" vertex="1">
          <mxGeometry y="26" width="250" height="8" as="geometry" />
        </mxCell>
        <mxCell id="0jWEhjdDe2riqvf0Gzja-94" value="+updatePassword(String):String&lt;div&gt;+updateUsername(String):String&lt;/div&gt;&lt;div&gt;+isRightAuthentication(Admin):boolean&lt;/div&gt;&lt;div&gt;+checkUsername(String):boolean&lt;/div&gt;&lt;div&gt;+checkPassword(String):boolean&lt;/div&gt;" style="text;strokeColor=none;fillColor=none;align=left;verticalAlign=top;spacingLeft=4;spacingRight=4;overflow=hidden;rotatable=0;points=[[0,0.5],[1,0.5]];portConstraint=eastwest;whiteSpace=wrap;html=1;" parent="0jWEhjdDe2riqvf0Gzja-91" vertex="1">
          <mxGeometry y="34" width="250" height="90" as="geometry" />
        </mxCell>
        <mxCell id="0jWEhjdDe2riqvf0Gzja-97" style="edgeStyle=orthogonalEdgeStyle;rounded=0;orthogonalLoop=1;jettySize=auto;html=1;entryX=0;entryY=0.5;entryDx=0;entryDy=0;endArrow=diamondThin;endFill=1;" parent="1" source="0jWEhjdDe2riqvf0Gzja-83" target="0jWEhjdDe2riqvf0Gzja-90" edge="1">
          <mxGeometry relative="1" as="geometry">
            <Array as="points">
              <mxPoint x="1208" y="229" />
              <mxPoint x="1208" y="110" />
            </Array>
          </mxGeometry>
        </mxCell>
        <mxCell id="0jWEhjdDe2riqvf0Gzja-98" value="Setting(UI)" style="swimlane;fontStyle=0;childLayout=stackLayout;horizontal=1;startSize=26;fillColor=none;horizontalStack=0;resizeParent=1;resizeParentMax=0;resizeLast=0;collapsible=1;marginBottom=0;whiteSpace=wrap;html=1;" parent="1" vertex="1">
          <mxGeometry x="650" y="60" width="240" height="110" as="geometry" />
        </mxCell>
        <mxCell id="0jWEhjdDe2riqvf0Gzja-100" value="+updatePassword(String):String&lt;div&gt;+updateUsername(String):String&lt;/div&gt;&lt;div&gt;+isRightAuthentication(Admin):boolean&lt;/div&gt;&lt;div&gt;+checkUsername(String):boolean&lt;/div&gt;&lt;div&gt;+checkPassword(String):boolean&lt;/div&gt;" style="text;strokeColor=none;fillColor=none;align=left;verticalAlign=top;spacingLeft=4;spacingRight=4;overflow=hidden;rotatable=0;points=[[0,0.5],[1,0.5]];portConstraint=eastwest;whiteSpace=wrap;html=1;" parent="0jWEhjdDe2riqvf0Gzja-98" vertex="1">
          <mxGeometry y="26" width="240" height="84" as="geometry" />
        </mxCell>
        <mxCell id="0jWEhjdDe2riqvf0Gzja-102" style="edgeStyle=orthogonalEdgeStyle;rounded=0;orthogonalLoop=1;jettySize=auto;html=1;entryX=0;entryY=0.5;entryDx=0;entryDy=0;exitX=1;exitY=0.5;exitDx=0;exitDy=0;endArrow=diamondThin;endFill=1;" parent="1" source="0jWEhjdDe2riqvf0Gzja-98" target="0jWEhjdDe2riqvf0Gzja-81" edge="1">
          <mxGeometry relative="1" as="geometry" />
        </mxCell>
        <mxCell id="0jWEhjdDe2riqvf0Gzja-110" style="edgeStyle=orthogonalEdgeStyle;rounded=0;orthogonalLoop=1;jettySize=auto;html=1;endArrow=block;endFill=0;" parent="1" source="0jWEhjdDe2riqvf0Gzja-103" target="0jWEhjdDe2riqvf0Gzja-105" edge="1">
          <mxGeometry relative="1" as="geometry" />
        </mxCell>
        <mxCell id="0jWEhjdDe2riqvf0Gzja-103" value="&lt;p style=&quot;margin:0px;margin-top:4px;text-align:center;&quot;&gt;&lt;b&gt;Custom Exception&lt;/b&gt;&lt;/p&gt;&lt;hr size=&quot;1&quot; style=&quot;border-style:solid;&quot;&gt;&lt;p style=&quot;margin:0px;margin-left:4px;&quot;&gt;+ field: Type&lt;/p&gt;&lt;hr size=&quot;1&quot; style=&quot;border-style:solid;&quot;&gt;&lt;p style=&quot;margin:0px;margin-left:4px;&quot;&gt;+ method(): Type&lt;/p&gt;" style="verticalAlign=top;align=left;overflow=fill;html=1;whiteSpace=wrap;" parent="1" vertex="1">
          <mxGeometry x="50" y="920" width="200" height="200" as="geometry" />
        </mxCell>
        <mxCell id="0jWEhjdDe2riqvf0Gzja-105" value="Exception" style="swimlane;fontStyle=1;align=center;verticalAlign=top;childLayout=stackLayout;horizontal=1;startSize=26;horizontalStack=0;resizeParent=1;resizeParentMax=0;resizeLast=0;collapsible=1;marginBottom=0;whiteSpace=wrap;html=1;" parent="1" vertex="1">
          <mxGeometry x="70" y="770" width="160" height="86" as="geometry" />
        </mxCell>
        <mxCell id="0jWEhjdDe2riqvf0Gzja-106" value="+ field: type" style="text;strokeColor=none;fillColor=none;align=left;verticalAlign=top;spacingLeft=4;spacingRight=4;overflow=hidden;rotatable=0;points=[[0,0.5],[1,0.5]];portConstraint=eastwest;whiteSpace=wrap;html=1;" parent="0jWEhjdDe2riqvf0Gzja-105" vertex="1">
          <mxGeometry y="26" width="160" height="26" as="geometry" />
        </mxCell>
        <mxCell id="0jWEhjdDe2riqvf0Gzja-107" value="" style="line;strokeWidth=1;fillColor=none;align=left;verticalAlign=middle;spacingTop=-1;spacingLeft=3;spacingRight=3;rotatable=0;labelPosition=right;points=[];portConstraint=eastwest;strokeColor=inherit;" parent="0jWEhjdDe2riqvf0Gzja-105" vertex="1">
          <mxGeometry y="52" width="160" height="8" as="geometry" />
        </mxCell>
        <mxCell id="0jWEhjdDe2riqvf0Gzja-108" value="+ method(type): type" style="text;strokeColor=none;fillColor=none;align=left;verticalAlign=top;spacingLeft=4;spacingRight=4;overflow=hidden;rotatable=0;points=[[0,0.5],[1,0.5]];portConstraint=eastwest;whiteSpace=wrap;html=1;" parent="0jWEhjdDe2riqvf0Gzja-105" vertex="1">
          <mxGeometry y="60" width="160" height="26" as="geometry" />
        </mxCell>
      </root>
    </mxGraphModel>
  </diagram>
</mxfile>
